<svg width="956" height="482" viewBox="0 0 956 482" fill="none" xmlns="http://www.w3.org/2000/svg">
<rect x="24.9297" width="930.312" height="482" fill="#D9D9D9"/>
<rect x="24.9297" width="91.9946" height="482" fill="url(#paint0_linear_7_83)"/>
<path d="M85.3189 28.5051H48.1139C47.2916 28.5051 46.503 28.8318 45.9215 29.4132C45.3401 29.9947 45.0134 30.7833 45.0134 31.6056L45.0134 68.8106C45.0134 69.6329 45.3401 70.4215 45.9215 71.003C46.503 71.5844 47.2916 71.9111 48.1139 71.9111H85.3189C86.1412 71.9111 86.9298 71.5844 87.5113 71.003C88.0927 70.4215 88.4194 69.6329 88.4194 68.8106V31.6056C88.4194 30.7833 88.0927 29.9947 87.5113 29.4132C86.9298 28.8318 86.1412 28.5051 85.3189 28.5051ZM82.2185 34.706V47.1077H69.8168V34.706H82.2185ZM63.616 34.706V47.1077H51.2143V34.706H63.616ZM51.2143 65.7102L51.2143 53.3085H63.616V65.7102H51.2143ZM69.8168 65.7102V53.3085H82.2185V65.7102H69.8168Z" fill="white"/>
<path d="M76.7718 223.265C76.4825 223.266 76.1972 223.198 75.9398 223.066L66.7161 218.237L57.4923 223.066C57.1928 223.224 56.8551 223.294 56.5176 223.269C56.1801 223.244 55.8564 223.125 55.5832 222.925C55.31 222.726 55.0984 222.453 54.9723 222.139C54.8462 221.825 54.8107 221.482 54.8699 221.149L56.6784 210.967L49.2271 203.732C48.9946 203.5 48.8297 203.21 48.75 202.891C48.6704 202.572 48.679 202.238 48.775 201.924C48.8798 201.602 49.0726 201.317 49.3315 201.099C49.5905 200.882 49.9052 200.742 50.2399 200.694L60.5488 199.193L65.0883 189.915C65.2364 189.609 65.4677 189.351 65.7556 189.171C66.0434 188.99 66.3763 188.895 66.7161 188.895C67.0558 188.895 67.3887 188.99 67.6766 189.171C67.9645 189.351 68.1957 189.609 68.3438 189.915L72.9376 199.175L83.2465 200.676C83.5812 200.724 83.8959 200.864 84.1549 201.081C84.4138 201.299 84.6066 201.584 84.7114 201.906C84.8074 202.22 84.816 202.554 84.7363 202.873C84.6567 203.191 84.4918 203.482 84.2593 203.714L76.8079 210.949L78.6165 221.131C78.6811 221.47 78.6473 221.82 78.5191 222.141C78.3909 222.461 78.1737 222.739 77.8931 222.94C77.5656 223.169 77.1713 223.284 76.7718 223.265Z" fill="white"/>
<path d="M85.1554 271.546C87.0563 272.214 88.4191 274.025 88.4191 276.154V297.857C88.4191 302.951 84.2895 307.081 79.1954 307.081H57.4924C55.3631 307.081 53.5522 305.718 52.8842 303.817L57.4359 303.824L79.1954 303.825C82.4916 303.825 85.1637 301.153 85.1637 297.857V276.154L85.155 276.043L85.1554 271.546ZM78.1033 263.675C80.8002 263.675 82.9865 265.861 82.9865 268.558V296.765C82.9865 299.462 80.8002 301.648 78.1033 301.648H49.8964C47.1995 301.648 45.0132 299.462 45.0132 296.765L45.0132 268.558C45.0132 265.861 47.1995 263.675 49.8964 263.675H78.1033ZM69.9058 275.546L61.4665 283.985L59.3371 281.146C58.7978 280.427 57.7775 280.281 57.0583 280.82C56.3392 281.36 56.1934 282.38 56.7328 283.099L59.9882 287.44C60.5826 288.232 61.741 288.314 62.4414 287.614L72.2077 277.848C72.8434 277.212 72.8434 276.181 72.2077 275.546C71.572 274.91 70.5414 274.91 69.9058 275.546Z" fill="white"/>
<path d="M81.9082 424.795H77.5676V422.625C77.5676 422.049 77.339 421.497 76.932 421.09C76.525 420.683 75.9729 420.454 75.3973 420.454C74.8217 420.454 74.2697 420.683 73.8627 421.09C73.4557 421.497 73.227 422.049 73.227 422.625V424.795H60.2053V422.625C60.2053 422.049 59.9766 421.497 59.5696 421.09C59.1626 420.683 58.6106 420.454 58.035 420.454C57.4594 420.454 56.9073 420.683 56.5003 421.09C56.0933 421.497 55.8647 422.049 55.8647 422.625V424.795H51.5241C49.7973 424.795 48.1412 425.481 46.9202 426.702C45.6992 427.923 45.0132 429.579 45.0132 431.306L45.0132 457.349C45.0132 459.076 45.6992 460.732 46.9202 461.953C48.1412 463.174 49.7973 463.86 51.5241 463.86H81.9082C83.635 463.86 85.2911 463.174 86.5121 461.953C87.7331 460.732 88.4191 459.076 88.4191 457.349V431.306C88.4191 429.579 87.7331 427.923 86.5121 426.702C85.2911 425.481 83.635 424.795 81.9082 424.795ZM84.0785 457.349C84.0785 457.925 83.8499 458.477 83.4429 458.884C83.0358 459.291 82.4838 459.52 81.9082 459.52H51.5241C50.9485 459.52 50.3965 459.291 49.9894 458.884C49.5824 458.477 49.3538 457.925 49.3538 457.349L49.3538 442.157H84.0785V457.349ZM84.0785 437.817H49.3538V431.306C49.3538 430.73 49.5824 430.178 49.9894 429.771C50.3965 429.364 50.9485 429.135 51.5241 429.135H55.8647V431.306C55.8647 431.881 56.0933 432.433 56.5003 432.84C56.9073 433.247 57.4594 433.476 58.035 433.476C58.6106 433.476 59.1626 433.247 59.5696 432.84C59.9766 432.433 60.2053 431.881 60.2053 431.306V429.135H73.227V431.306C73.227 431.881 73.4557 432.433 73.8627 432.84C74.2697 433.247 74.8217 433.476 75.3973 433.476C75.9729 433.476 76.525 433.247 76.932 432.84C77.339 432.433 77.5676 431.881 77.5676 431.306V429.135H81.9082C82.4838 429.135 83.0358 429.364 83.4429 429.771C83.8499 430.178 84.0785 430.73 84.0785 431.306V437.817Z" fill="white"/>
<path d="M84.8726 365.2C84.5185 364.804 84.3232 364.295 84.3232 363.768C84.3232 363.24 84.5185 362.731 84.8726 362.335L87.7003 359.211C88.0118 358.869 88.2053 358.44 88.2529 357.983C88.3006 357.527 88.1999 357.068 87.9653 356.672L83.5472 349.163C83.315 348.767 82.9615 348.454 82.5371 348.267C82.1126 348.08 81.6389 348.029 81.1835 348.122L77.0304 348.946C76.5019 349.054 75.9518 348.967 75.4838 348.703C75.0158 348.44 74.6623 348.017 74.4899 347.514L73.1424 343.543C72.9942 343.112 72.7119 342.738 72.3353 342.473C71.9587 342.208 71.5069 342.066 71.0438 342.068H62.2075C61.7257 342.043 61.249 342.174 60.8501 342.44C60.4512 342.707 60.1521 343.094 59.9984 343.543L58.7613 347.514C58.589 348.017 58.2355 348.44 57.7675 348.703C57.2994 348.967 56.7493 349.054 56.2208 348.946L51.9573 348.122C51.5256 348.062 51.0854 348.129 50.6923 348.314C50.2992 348.5 49.9707 348.795 49.7482 349.163L45.3301 356.672C45.0896 357.064 44.9815 357.52 45.0212 357.976C45.0609 358.432 45.2463 358.864 45.551 359.211L48.3565 362.335C48.7107 362.731 48.906 363.24 48.906 363.768C48.906 364.295 48.7107 364.804 48.3565 365.2L45.551 368.325C45.2463 368.671 45.0609 369.103 45.0212 369.559C44.9815 370.015 45.0896 370.471 45.3301 370.863L49.7482 378.372C49.9804 378.768 50.3339 379.082 50.7583 379.269C51.1828 379.456 51.6565 379.506 52.112 379.413L56.265 378.589C56.7935 378.481 57.3436 378.568 57.8116 378.832C58.2797 379.096 58.6332 379.519 58.8055 380.021L60.153 383.992C60.3067 384.441 60.6059 384.828 61.0048 385.095C61.4037 385.361 61.8804 385.492 62.3621 385.468H71.1984C71.6615 385.469 72.1133 385.327 72.4899 385.062C72.8665 384.797 73.1488 384.423 73.297 383.992L74.6446 380.021C74.8169 379.519 75.1704 379.096 75.6384 378.832C76.1064 378.568 76.6566 378.481 77.185 378.589L81.3381 379.413C81.7936 379.506 82.2673 379.456 82.6917 379.269C83.1162 379.082 83.4697 378.768 83.7018 378.372L88.12 370.863C88.3545 370.467 88.4552 370.008 88.4076 369.552C88.36 369.096 88.1665 368.666 87.8549 368.325L84.8726 365.2ZM81.5811 368.108L83.3484 370.061L80.5207 374.878L77.914 374.357C76.323 374.038 74.6679 374.303 73.263 375.103C71.8581 375.903 70.8011 377.182 70.2927 378.697L69.4532 381.128H63.798L63.0027 378.654C62.4943 377.139 61.4373 375.86 60.0324 375.06C58.6275 374.26 56.9724 373.994 55.3814 374.314L52.7747 374.835L49.9029 370.039L51.6701 368.086C52.7569 366.892 53.3577 365.347 53.3577 363.746C53.3577 362.145 52.7569 360.599 51.6701 359.406L49.9029 357.453L52.7305 352.679L55.3372 353.2C56.9282 353.519 58.5833 353.254 59.9882 352.454C61.3931 351.654 62.4501 350.375 62.9585 348.86L63.798 346.408H69.4532L70.2927 348.881C70.8011 350.396 71.8581 351.675 73.263 352.475C74.6679 353.275 76.323 353.541 77.914 353.221L80.5207 352.701L83.3484 357.518L81.5811 359.471C80.5065 360.662 79.9132 362.198 79.9132 363.789C79.9132 365.381 80.5065 366.917 81.5811 368.108ZM66.6256 355.088C64.878 355.088 63.1695 355.597 61.7164 356.55C60.2633 357.504 59.1307 358.86 58.4619 360.446C57.7931 362.032 57.6181 363.777 57.9591 365.461C58.3 367.145 59.1416 368.691 60.3774 369.905C61.6132 371.119 63.1877 371.946 64.9017 372.281C66.6158 372.616 68.3925 372.444 70.0071 371.787C71.6218 371.13 73.0018 370.017 73.9728 368.59C74.9437 367.162 75.4619 365.484 75.4619 363.768C75.4619 361.465 74.531 359.258 72.8738 357.63C71.2167 356.002 68.9692 355.088 66.6256 355.088ZM66.6256 368.108C65.7518 368.108 64.8976 367.853 64.171 367.376C63.4445 366.899 62.8782 366.221 62.5438 365.428C62.2094 364.635 62.1219 363.763 62.2924 362.921C62.4628 362.079 62.8836 361.306 63.5015 360.699C64.1194 360.092 64.9066 359.678 65.7637 359.511C66.6207 359.343 67.5091 359.429 68.3164 359.758C69.1237 360.086 69.8137 360.643 70.2992 361.356C70.7847 362.07 71.0438 362.909 71.0438 363.768C71.0438 364.919 70.5783 366.022 69.7497 366.836C68.9212 367.65 67.7974 368.108 66.6256 368.108Z" fill="white"/>
<g filter="url(#filter0_d_7_83)">
<rect x="4" y="67.825" width="66.0807" height="61.5457" rx="8" fill="#009CF4"/>
</g>
<path d="M50.2808 113.971H23.1521C21.9704 113.985 20.831 113.531 19.9836 112.707C19.1362 111.884 18.6497 110.758 18.6306 109.576L18.6306 87.6199C18.6497 86.4382 19.1362 85.3123 19.9836 84.4886C20.831 83.6648 21.9704 83.2105 23.1521 83.225H31.4715C31.7387 83.2268 32.0021 83.2877 32.2429 83.4034C32.4837 83.5191 32.6959 83.6867 32.8641 83.8942L37.5665 89.6455H50.2265C50.8162 89.6311 51.4029 89.7336 51.9527 89.9471C52.5026 90.1606 53.0047 90.4809 53.4301 90.8895C53.8555 91.2981 54.1958 91.7869 54.4313 92.3277C54.6668 92.8685 54.7929 93.4505 54.8022 94.0403L54.8022 109.576C54.7832 110.758 54.2967 111.884 53.4492 112.707C52.6018 113.531 51.4625 113.985 50.2808 113.971Z" fill="white"/>
<rect x="143.486" y="28.506" width="788.433" height="53.7715" fill="white"/>
<rect x="387.726" y="269.506" width="204.073" height="103.008" fill="white"/>
<rect x="387.725" y="156.132" width="204.073" height="99.7688" fill="#0057FF"/>
<path d="M396.932 139.929V126.765H392.456V123.129H405.416V126.765H400.94V139.929H396.932ZM410.295 140.289C409.479 140.289 408.747 140.133 408.099 139.821C407.451 139.501 406.939 139.049 406.563 138.465C406.187 137.873 405.999 137.165 405.999 136.341C405.999 135.637 406.171 135.013 406.515 134.469C406.867 133.925 407.395 133.477 408.099 133.125C408.803 132.773 409.687 132.537 410.751 132.417C411.823 132.289 413.075 132.289 414.507 132.417L414.543 134.865C413.783 134.729 413.095 134.661 412.479 134.661C411.871 134.653 411.351 134.705 410.919 134.817C410.495 134.921 410.167 135.085 409.935 135.309C409.703 135.533 409.587 135.809 409.587 136.137C409.587 136.561 409.747 136.885 410.067 137.109C410.395 137.333 410.831 137.445 411.375 137.445C411.847 137.445 412.271 137.361 412.647 137.193C413.031 137.025 413.335 136.781 413.559 136.461C413.791 136.133 413.907 135.733 413.907 135.261V132.465C413.907 132.025 413.815 131.637 413.631 131.301C413.447 130.965 413.155 130.705 412.755 130.521C412.363 130.329 411.839 130.233 411.183 130.233C410.551 130.233 409.923 130.329 409.299 130.521C408.675 130.705 408.115 130.985 407.619 131.361L406.611 128.661C407.403 128.165 408.251 127.801 409.155 127.569C410.059 127.329 410.947 127.209 411.819 127.209C412.971 127.209 413.983 127.393 414.855 127.761C415.735 128.129 416.423 128.697 416.919 129.465C417.415 130.233 417.663 131.217 417.663 132.417V139.929H414.267V138.633C413.875 139.161 413.335 139.569 412.647 139.857C411.959 140.145 411.175 140.289 410.295 140.289ZM425.369 140.265C424.233 140.265 423.193 140.125 422.249 139.845C421.313 139.565 420.505 139.169 419.825 138.657L421.049 135.957C421.713 136.381 422.425 136.717 423.185 136.965C423.945 137.205 424.665 137.325 425.345 137.325C425.969 137.325 426.445 137.241 426.773 137.073C427.101 136.897 427.265 136.645 427.265 136.317C427.265 136.029 427.113 135.817 426.809 135.681C426.513 135.545 425.929 135.397 425.057 135.237C423.409 134.957 422.201 134.497 421.433 133.857C420.673 133.209 420.293 132.325 420.293 131.205C420.293 130.405 420.513 129.705 420.953 129.105C421.393 128.505 422.001 128.041 422.777 127.713C423.561 127.377 424.461 127.209 425.477 127.209C426.469 127.209 427.405 127.341 428.285 127.605C429.173 127.869 429.933 128.237 430.565 128.709L429.377 131.409C429.049 131.161 428.669 130.941 428.237 130.749C427.813 130.557 427.373 130.409 426.917 130.305C426.461 130.201 426.017 130.149 425.585 130.149C425.049 130.149 424.613 130.233 424.277 130.401C423.949 130.561 423.785 130.785 423.785 131.073C423.785 131.369 423.929 131.589 424.217 131.733C424.505 131.877 425.081 132.041 425.945 132.225C427.689 132.577 428.925 133.053 429.653 133.653C430.381 134.245 430.745 135.077 430.745 136.149C430.745 136.981 430.517 137.705 430.061 138.321C429.613 138.937 428.985 139.417 428.177 139.761C427.377 140.097 426.441 140.265 425.369 140.265ZM433.312 139.929V122.649H437.248V131.745L440.932 127.689H445.492L441.208 132.633L445.876 139.929H441.22L438.352 135.201L437.248 136.377V139.929H433.312ZM453.652 139.929V123.129H457.636V139.929H453.652ZM461.249 139.929V127.689H465.185V129.201C465.481 128.785 465.829 128.441 466.229 128.169C466.629 127.889 467.057 127.681 467.513 127.545C467.969 127.401 468.429 127.329 468.893 127.329C469.789 127.329 470.561 127.533 471.209 127.941C471.865 128.341 472.313 128.881 472.553 129.561C473.033 128.785 473.677 128.221 474.485 127.869C475.293 127.509 476.153 127.329 477.065 127.329C478.249 127.329 479.181 127.557 479.861 128.013C480.541 128.461 481.021 129.045 481.301 129.765C481.589 130.477 481.733 131.233 481.733 132.033V139.929H477.797V133.161C477.797 132.473 477.617 131.925 477.257 131.517C476.897 131.101 476.373 130.893 475.685 130.893C475.253 130.893 474.869 130.985 474.533 131.169C474.197 131.353 473.933 131.601 473.741 131.913C473.557 132.217 473.465 132.561 473.465 132.945V139.929H469.529V133.161C469.529 132.473 469.345 131.925 468.977 131.517C468.617 131.101 468.097 130.893 467.417 130.893C466.977 130.893 466.589 130.985 466.253 131.169C465.917 131.353 465.653 131.601 465.461 131.913C465.277 132.217 465.185 132.561 465.185 132.945V139.929H461.249ZM484.898 144.969V127.689H488.294V129.093C488.75 128.557 489.33 128.129 490.034 127.809C490.746 127.489 491.57 127.329 492.506 127.329C493.674 127.329 494.714 127.597 495.626 128.133C496.546 128.669 497.27 129.425 497.798 130.401C498.326 131.377 498.59 132.513 498.59 133.809C498.59 134.721 498.438 135.573 498.134 136.365C497.838 137.149 497.414 137.837 496.862 138.429C496.31 139.013 495.658 139.469 494.906 139.797C494.162 140.125 493.338 140.289 492.434 140.289C491.714 140.289 491.05 140.173 490.442 139.941C489.842 139.709 489.302 139.381 488.822 138.957V144.969H484.898ZM491.774 136.905C492.342 136.905 492.85 136.781 493.298 136.533C493.746 136.277 494.098 135.917 494.354 135.453C494.61 134.989 494.738 134.441 494.738 133.809C494.738 133.169 494.606 132.621 494.342 132.165C494.086 131.701 493.734 131.345 493.286 131.097C492.846 130.841 492.342 130.713 491.774 130.713C491.214 130.713 490.71 130.841 490.262 131.097C489.814 131.345 489.462 131.701 489.206 132.165C488.95 132.621 488.822 133.169 488.822 133.809C488.822 134.441 488.95 134.989 489.206 135.453C489.462 135.917 489.81 136.277 490.25 136.533C490.698 136.781 491.206 136.905 491.774 136.905ZM506.843 140.289C505.507 140.289 504.327 139.997 503.303 139.413C502.279 138.821 501.475 138.033 500.891 137.049C500.315 136.065 500.027 134.985 500.027 133.809C500.027 132.953 500.191 132.137 500.519 131.361C500.855 130.577 501.327 129.885 501.935 129.285C502.543 128.677 503.263 128.201 504.095 127.857C504.927 127.505 505.843 127.329 506.843 127.329C508.179 127.329 509.359 127.625 510.383 128.217C511.407 128.801 512.207 129.585 512.783 130.569C513.359 131.553 513.647 132.633 513.647 133.809C513.647 134.665 513.483 135.485 513.155 136.269C512.827 137.045 512.359 137.733 511.751 138.333C511.143 138.933 510.423 139.409 509.591 139.761C508.759 140.113 507.843 140.289 506.843 140.289ZM506.843 136.905C507.403 136.905 507.907 136.781 508.355 136.533C508.803 136.277 509.155 135.917 509.411 135.453C509.667 134.989 509.795 134.441 509.795 133.809C509.795 133.169 509.667 132.621 509.411 132.165C509.163 131.701 508.815 131.345 508.367 131.097C507.919 130.841 507.411 130.713 506.843 130.713C506.275 130.713 505.767 130.841 505.319 131.097C504.871 131.345 504.519 131.701 504.263 132.165C504.007 132.621 503.879 133.169 503.879 133.809C503.879 134.441 504.007 134.989 504.263 135.453C504.527 135.917 504.883 136.277 505.331 136.533C505.779 136.781 506.283 136.905 506.843 136.905ZM515.953 139.929V127.689H519.889V129.117C520.257 128.485 520.745 128.025 521.353 127.737C521.961 127.449 522.621 127.305 523.333 127.305C523.605 127.305 523.849 127.321 524.065 127.353C524.281 127.385 524.493 127.421 524.701 127.461L524.233 131.505C523.961 131.409 523.673 131.333 523.369 131.277C523.065 131.213 522.761 131.181 522.457 131.181C521.713 131.181 521.097 131.397 520.609 131.829C520.129 132.253 519.889 132.877 519.889 133.701V139.929H515.953ZM532.169 140.289C530.809 140.289 529.741 139.909 528.965 139.149C528.189 138.381 527.801 137.237 527.801 135.717V124.185H531.737V127.689H534.605V130.809H531.737V135.033C531.737 135.689 531.881 136.149 532.169 136.413C532.457 136.677 532.829 136.809 533.285 136.809C533.533 136.809 533.777 136.781 534.017 136.725C534.265 136.661 534.493 136.569 534.701 136.449L535.205 139.533C534.829 139.741 534.377 139.917 533.849 140.061C533.321 140.213 532.761 140.289 532.169 140.289ZM525.425 130.809V127.689H528.161V130.809H525.425ZM541.006 140.289C540.19 140.289 539.458 140.133 538.81 139.821C538.162 139.501 537.65 139.049 537.274 138.465C536.898 137.873 536.71 137.165 536.71 136.341C536.71 135.637 536.882 135.013 537.226 134.469C537.578 133.925 538.106 133.477 538.81 133.125C539.514 132.773 540.398 132.537 541.462 132.417C542.534 132.289 543.786 132.289 545.218 132.417L545.254 134.865C544.494 134.729 543.806 134.661 543.19 134.661C542.582 134.653 542.062 134.705 541.63 134.817C541.206 134.921 540.878 135.085 540.646 135.309C540.414 135.533 540.298 135.809 540.298 136.137C540.298 136.561 540.458 136.885 540.778 137.109C541.106 137.333 541.542 137.445 542.086 137.445C542.558 137.445 542.982 137.361 543.358 137.193C543.742 137.025 544.046 136.781 544.27 136.461C544.502 136.133 544.618 135.733 544.618 135.261V132.465C544.618 132.025 544.526 131.637 544.342 131.301C544.158 130.965 543.866 130.705 543.466 130.521C543.074 130.329 542.55 130.233 541.894 130.233C541.262 130.233 540.634 130.329 540.01 130.521C539.386 130.705 538.826 130.985 538.33 131.361L537.322 128.661C538.114 128.165 538.962 127.801 539.866 127.569C540.77 127.329 541.658 127.209 542.53 127.209C543.682 127.209 544.694 127.393 545.566 127.761C546.446 128.129 547.134 128.697 547.63 129.465C548.126 130.233 548.374 131.217 548.374 132.417V139.929H544.978V138.633C544.586 139.161 544.046 139.569 543.358 139.857C542.67 140.145 541.886 140.289 541.006 140.289ZM551.484 139.929V127.689H555.42V128.985C555.876 128.409 556.416 127.989 557.04 127.725C557.664 127.461 558.32 127.329 559.008 127.329C560.16 127.329 561.108 127.557 561.852 128.013C562.596 128.461 563.144 129.045 563.496 129.765C563.856 130.477 564.036 131.233 564.036 132.033V139.929H560.1V133.269C560.1 132.533 559.904 131.953 559.512 131.529C559.128 131.105 558.56 130.893 557.808 130.893C557.328 130.893 556.908 130.997 556.548 131.205C556.196 131.413 555.92 131.709 555.72 132.093C555.52 132.469 555.42 132.901 555.42 133.389V139.929H551.484ZM572.341 140.289C570.981 140.289 569.913 139.909 569.137 139.149C568.361 138.381 567.973 137.237 567.973 135.717V124.185H571.909V127.689H574.777V130.809H571.909V135.033C571.909 135.689 572.053 136.149 572.341 136.413C572.629 136.677 573.001 136.809 573.457 136.809C573.705 136.809 573.949 136.781 574.189 136.725C574.437 136.661 574.665 136.569 574.873 136.449L575.377 139.533C575.001 139.741 574.549 139.917 574.021 140.061C573.493 140.213 572.933 140.289 572.341 140.289ZM565.597 130.809V127.689H568.333V130.809H565.597Z" fill="#001B60"/>
<rect x="143.487" y="385.47" width="479.409" height="78.3898" fill="white"/>
<rect x="622.895" y="103.008" width="141.231" height="167.793" fill="white"/>
<rect x="637.148" y="295.419" width="294.772" height="167.793" fill="white"/>
<line x1="153.204" y1="67.9116" x2="233.537" y2="67.9116" stroke="#0019FF" stroke-width="8"/>
<line x1="266.578" y1="67.9109" x2="346.911" y2="67.9109" stroke="#68DDCF" stroke-width="8"/>
<line x1="379.951" y1="67.9116" x2="460.284" y2="67.9116" stroke="#68DDCF" stroke-width="8"/>
<line x1="493.325" y1="67.9115" x2="573.658" y2="67.9115" stroke="#68DDCF" stroke-width="8"/>
<line x1="606.698" y1="67.9114" x2="687.032" y2="67.9114" stroke="#68DDCF" stroke-width="8"/>
<line x1="720.073" y1="67.9113" x2="800.406" y2="67.9113" stroke="#68DDCF" stroke-width="8"/>
<line x1="833.446" y1="67.9117" x2="913.779" y2="67.9117" stroke="#68DDCF" stroke-width="8"/>
<g filter="url(#filter1_d_7_83)">
<rect x="102.487" y="62.0076" width="204.073" height="260.436" fill="white"/>
</g>
<path d="M205.039 91.5346C239.106 91.5347 266.564 118.733 266.564 152.087C266.563 185.441 239.106 212.639 205.039 212.639C170.972 212.639 143.515 185.442 143.515 152.087C143.515 118.733 170.972 91.5346 205.039 91.5346Z" stroke="#0057FF" stroke-width="13"/>
<path d="M167.771 165.842C165.944 165.842 164.218 165.582 162.591 165.062C160.964 164.542 159.618 163.822 158.551 162.902L160.451 157.722C161.331 158.602 162.384 159.249 163.611 159.662C164.838 160.062 166.104 160.262 167.411 160.262C168.438 160.262 169.324 160.116 170.071 159.822C170.831 159.529 171.411 159.082 171.811 158.482C172.224 157.882 172.431 157.129 172.431 156.222C172.431 155.462 172.218 154.802 171.791 154.242C171.378 153.682 170.791 153.256 170.031 152.962C169.284 152.656 168.398 152.502 167.371 152.502C166.704 152.502 166.004 152.582 165.271 152.742C164.538 152.902 163.798 153.149 163.051 153.482L160.331 150.482L161.811 137.262L177.931 137.302V142.962H166.371L165.731 147.862C166.224 147.742 166.711 147.649 167.191 147.582C167.684 147.516 168.191 147.482 168.711 147.482C170.644 147.482 172.351 147.842 173.831 148.562C175.324 149.282 176.491 150.322 177.331 151.682C178.171 153.029 178.591 154.642 178.591 156.522C178.591 158.416 178.138 160.062 177.231 161.462C176.338 162.849 175.078 163.929 173.451 164.702C171.838 165.462 169.944 165.842 167.771 165.842ZM194.445 165.842C192.552 165.842 190.865 165.462 189.385 164.702C187.905 163.942 186.658 162.889 185.645 161.542C184.632 160.196 183.858 158.642 183.325 156.882C182.805 155.122 182.545 153.242 182.545 151.242C182.545 149.229 182.805 147.342 183.325 145.582C183.858 143.822 184.632 142.276 185.645 140.942C186.658 139.596 187.905 138.542 189.385 137.782C190.865 137.022 192.552 136.642 194.445 136.642C196.325 136.642 198.005 137.022 199.485 137.782C200.965 138.542 202.212 139.596 203.225 140.942C204.238 142.276 205.005 143.822 205.525 145.582C206.058 147.342 206.325 149.229 206.325 151.242C206.325 153.242 206.058 155.122 205.525 156.882C205.005 158.642 204.238 160.196 203.225 161.542C202.212 162.889 200.965 163.942 199.485 164.702C198.005 165.462 196.325 165.842 194.445 165.842ZM194.445 160.142C195.285 160.142 196.045 159.949 196.725 159.562C197.418 159.176 198.012 158.609 198.505 157.862C198.998 157.102 199.378 156.169 199.645 155.062C199.912 153.956 200.045 152.682 200.045 151.242C200.045 149.322 199.812 147.702 199.345 146.382C198.878 145.049 198.225 144.042 197.385 143.362C196.545 142.669 195.565 142.322 194.445 142.322C193.605 142.322 192.838 142.522 192.145 142.922C191.452 143.309 190.858 143.882 190.365 144.642C189.872 145.389 189.492 146.316 189.225 147.422C188.972 148.529 188.845 149.802 188.845 151.242C188.845 153.162 189.072 154.782 189.525 156.102C189.992 157.422 190.645 158.429 191.485 159.122C192.325 159.802 193.312 160.142 194.445 160.142ZM222.988 165.982L219.608 163.982L235.028 136.482L238.408 138.402L222.988 165.982ZM217.148 152.602C215.641 152.602 214.281 152.256 213.068 151.562C211.854 150.856 210.888 149.909 210.168 148.722C209.448 147.522 209.088 146.182 209.088 144.702C209.088 143.236 209.448 141.909 210.168 140.722C210.888 139.536 211.854 138.596 213.068 137.902C214.281 137.196 215.641 136.842 217.148 136.842C218.641 136.842 219.994 137.196 221.208 137.902C222.421 138.596 223.381 139.536 224.088 140.722C224.808 141.909 225.168 143.236 225.168 144.702C225.168 146.169 224.808 147.502 224.088 148.702C223.381 149.889 222.421 150.836 221.208 151.542C219.994 152.249 218.641 152.602 217.148 152.602ZM217.148 148.422C217.854 148.422 218.488 148.262 219.048 147.942C219.608 147.622 220.041 147.182 220.348 146.622C220.668 146.062 220.828 145.422 220.828 144.702C220.828 143.622 220.481 142.736 219.788 142.042C219.108 141.349 218.228 141.002 217.148 141.002C216.414 141.002 215.768 141.162 215.208 141.482C214.661 141.802 214.228 142.242 213.908 142.802C213.601 143.349 213.448 143.982 213.448 144.702C213.448 145.796 213.794 146.689 214.488 147.382C215.181 148.076 216.068 148.422 217.148 148.422ZM240.908 165.642C239.401 165.642 238.041 165.289 236.828 164.582C235.614 163.876 234.648 162.929 233.928 161.742C233.208 160.542 232.848 159.209 232.848 157.742C232.848 156.276 233.208 154.949 233.928 153.762C234.648 152.576 235.614 151.636 236.828 150.942C238.041 150.236 239.401 149.882 240.908 149.882C242.414 149.882 243.768 150.236 244.968 150.942C246.181 151.636 247.141 152.576 247.848 153.762C248.568 154.949 248.928 156.276 248.928 157.742C248.928 159.209 248.568 160.542 247.848 161.742C247.141 162.929 246.181 163.876 244.968 164.582C243.768 165.289 242.414 165.642 240.908 165.642ZM240.908 161.462C241.628 161.462 242.261 161.302 242.808 160.982C243.368 160.662 243.801 160.222 244.108 159.662C244.428 159.102 244.588 158.462 244.588 157.742C244.588 156.662 244.248 155.776 243.568 155.082C242.888 154.389 242.001 154.042 240.908 154.042C240.174 154.042 239.528 154.202 238.968 154.522C238.421 154.829 237.994 155.262 237.688 155.822C237.381 156.369 237.228 157.009 237.228 157.742C237.228 158.822 237.568 159.716 238.248 160.422C238.928 161.116 239.814 161.462 240.908 161.462Z" fill="black"/>
<g filter="url(#filter2_d_7_83)">
<rect x="740.688" y="53.0079" width="141.231" height="167.793" fill="#17D9CD"/>
</g>
<defs>
<filter id="filter0_d_7_83" x="0" y="67.825" width="74.0806" height="82.5457" filterUnits="userSpaceOnUse" color-interpolation-filters="sRGB">
<feFlood flood-opacity="0" result="BackgroundImageFix"/>
<feColorMatrix in="SourceAlpha" type="matrix" values="0 0 0 0 0 0 0 0 0 0 0 0 0 0 0 0 0 0 127 0" result="hardAlpha"/>
<feOffset dy="17"/>
<feGaussianBlur stdDeviation="2"/>
<feComposite in2="hardAlpha" operator="out"/>
<feColorMatrix type="matrix" values="0 0 0 0 0 0 0 0 0 0 0 0 0 0 0 0 0 0 0.25 0"/>
<feBlend mode="normal" in2="BackgroundImageFix" result="effect1_dropShadow_7_83"/>
<feBlend mode="normal" in="SourceGraphic" in2="effect1_dropShadow_7_83" result="shape"/>
</filter>
<filter id="filter1_d_7_83" x="102.487" y="62.0076" width="219.073" height="290.436" filterUnits="userSpaceOnUse" color-interpolation-filters="sRGB">
<feFlood flood-opacity="0" result="BackgroundImageFix"/>
<feColorMatrix in="SourceAlpha" type="matrix" values="0 0 0 0 0 0 0 0 0 0 0 0 0 0 0 0 0 0 127 0" result="hardAlpha"/>
<feOffset dx="11" dy="26"/>
<feGaussianBlur stdDeviation="2"/>
<feComposite in2="hardAlpha" operator="out"/>
<feColorMatrix type="matrix" values="0 0 0 0 0 0 0 0 0 0 0 0 0 0 0 0 0 0 0.25 0"/>
<feBlend mode="normal" in2="BackgroundImageFix" result="effect1_dropShadow_7_83"/>
<feBlend mode="normal" in="SourceGraphic" in2="effect1_dropShadow_7_83" result="shape"/>
</filter>
<filter id="filter2_d_7_83" x="740.688" y="53.0079" width="158.231" height="212.793" filterUnits="userSpaceOnUse" color-interpolation-filters="sRGB">
<feFlood flood-opacity="0" result="BackgroundImageFix"/>
<feColorMatrix in="SourceAlpha" type="matrix" values="0 0 0 0 0 0 0 0 0 0 0 0 0 0 0 0 0 0 127 0" result="hardAlpha"/>
<feOffset dx="13" dy="41"/>
<feGaussianBlur stdDeviation="2"/>
<feComposite in2="hardAlpha" operator="out"/>
<feColorMatrix type="matrix" values="0 0 0 0 0 0 0 0 0 0 0 0 0 0 0 0 0 0 0.25 0"/>
<feBlend mode="normal" in2="BackgroundImageFix" result="effect1_dropShadow_7_83"/>
<feBlend mode="normal" in="SourceGraphic" in2="effect1_dropShadow_7_83" result="shape"/>
</filter>
<linearGradient id="paint0_linear_7_83" x1="70.927" y1="0" x2="70.927" y2="482" gradientUnits="userSpaceOnUse">
<stop stop-color="#00E2E0"/>
<stop offset="1" stop-color="#0170A0"/>
</linearGradient>
</defs>
</svg>
